PathFileType	4	(X/Y/Z)	Patient4_TMGait_0pt6_01_right_10.trc.trc
DataRate	CameraRate	NumFrames	NumMarkers	Units	OrigDataRate	OrigDataStartFrame	OrigNumFrames
82.352941176471	82.352941176471	4	33	mm	82.352941176471	89	       141
Frame#	Time	Sacral			L.Shoulder			Chest			R.Shoulder			Neck			R.ASIS			L.ASIS			R.Thigh.Superior			R.Thigh.Lateral			R.Thigh.Inferior			R.Patella			L.Thigh.Superior			L.Thigh.Lateral			L.Thigh.Inferior			L.Patella			L.Shank.Superior			L.Shank.Lateral			L.Shank.Inferior			R.Shank.Superior			R.Shank.Lateral			R.Shank.Inferior			R.Heel			R.Midfoot.Superior			R.Midfoot.Lateral			R.Toe			L.Heel			L.Midfoot.Lateral			L.Midfoot.Superior			L.Toe			L.Elbow			L.Wrist			R.Elbow			R.Wrist			
		X1	Y1	Z1	X2	Y2	Z2	X3	Y3	Z3	X4	Y4	Z4	X5	Y5	Z5	X6	Y6	Z6	X7	Y7	Z7	X8	Y8	Z8	X9	Y9	Z9	X10	Y10	Z10	X11	Y11	Z11	X12	Y12	Z12	X13	Y13	Z13	X14	Y14	Z14	X15	Y15	Z15	X16	Y16	Z16	X17	Y17	Z17	X18	Y18	Z18	X19	Y19	Z19	X20	Y20	Z20	X21	Y21	Z21	X22	Y22	Z22	X23	Y23	Z23	X24	Y24	Z24	X25	Y25	Z25	X26	Y26	Z26	X27	Y27	Z27	X28	Y28	Z28	X29	Y29	Z29	X30	Y30	Z30	X31	Y31	Z31	X32	Y32	Z32	X33	Y33	Z33	

89	12.628571428571	661.226971405707	1003.327122733354	450.896162802565	808.888476745023	1421.564202870667	242.654516893199	920.898489475820	1366.004323674798	402.909525178127	843.464833400019	1448.552327568077	573.938581014481	797.590863731235	1491.457209788412	392.334758117202	888.456614527793	937.484623420156	562.512154615114	871.272035470494	962.020371126410	289.057616240113	932.565557378810	735.595282066718	543.002521199833	853.439247380159	623.783717757769	605.363354327536	940.834386321277	566.713788968368	536.839663762603	930.669319559150	454.318932147890	555.355968026895	931.602555077364	759.822799005311	313.660226126619	849.597156781218	637.531690126807	260.226506865433	943.927569966933	568.782612806874	318.790214966207	949.498037668863	499.770310569904	327.305974768437	929.543570676907	425.834200694093	323.386918898603	846.643505562100	301.216404081231	287.238942778537	919.878076085485	199.388966062543	354.553089132795	847.811284358848	390.458805248846	550.294443156140	718.850461459094	358.387783863417	597.031730889808	702.040139030585	253.511635838791	541.742512591136	496.334033115932	194.202589227089	489.714232484715	663.672680119237	149.268293610295	554.937346505279	550.207132393780	149.896462452302	576.403973718380	727.453671233289	46.978465300443	603.445086451541	809.960633689793	37.790912297008	413.909925678363	880.292388040922	34.466169543785	329.195127021854	962.989468263485	99.252875175623	348.905638956144	1090.777429131811	51.072138814606	319.739381673011	788.344751431434	1060.828016914795	145.530011705284	859.516066222079	811.272651897201	141.120202183101	921.185879614660	1111.603204119969	698.037348592415	1156.296760254466	1049.606704329739	620.381966426335	
90	12.640714285714	660.652237645818	1003.753555932699	448.344566020056	809.986064493092	1422.169509375534	240.826801899837	920.381552135729	1366.970854714105	402.321749077181	841.100544223615	1449.520793128646	572.568923606835	796.993981370477	1492.279595228348	390.513226843785	887.504435161726	938.334373497509	561.224149554531	871.539251345120	963.015783339364	287.703543295691	936.858796495964	739.443086653140	542.707588579544	860.844724183862	626.247560887941	605.845999619156	950.520738183374	570.921636041886	538.252818775293	942.576682096020	457.594714943001	557.470024911951	929.367866354441	759.136752272460	311.499743697531	845.843411786914	637.903852504389	258.621100828494	939.174401016783	568.127420074900	317.184330260763	943.814989094215	499.206486294778	325.717158835567	923.636674572980	425.464341863141	322.055425080795	839.879005773024	301.199307538543	286.496435784372	912.898526639518	199.196570864240	353.855864250142	858.869585410336	393.674047216506	551.596527728433	728.506312668735	364.115860608376	596.494081770537	710.537840502468	259.408319277279	541.427403974272	504.586481441625	204.197569649896	486.350325947155	670.066534960701	155.856043216256	554.421900767835	556.077722362731	159.048608511597	574.184779828485	730.918096040732	51.538523955589	604.666838144942	802.585890356833	37.775397648181	413.807198836460	872.878557089165	34.352774722501	329.076229215343	955.586165288822	99.227401102252	348.620701134474	1083.386212246979	51.067902505063	319.552356494005	796.536377472743	1061.556154898395	141.806648810050	874.870173055960	814.054831827881	136.812171266066	909.470118161819	1110.825773541097	698.911637548992	1142.149325094537	1034.145977069188	625.574943066209	
91	12.652857142857	660.009288328357	1004.083929113793	445.870971549105	810.907754939933	1422.765192737380	239.219636879347	919.757145916365	1367.821390072735	401.848111621792	838.732236184383	1450.259210643380	571.400930898497	796.343571126682	1493.024725065553	388.923870945397	886.512701415569	939.131924764383	559.869251915578	871.663844768700	963.855887375669	286.305705151365	940.828796684966	743.364655252121	542.365980846164	867.941323189732	628.986641302800	606.461717197766	959.654047666033	575.448205486482	539.638679654661	954.094736772017	461.347666267732	559.559303225300	927.173346968488	758.555093244394	309.747686663483	842.294526418329	638.284378909998	257.102842933599	934.555705228963	567.501365439242	315.784469809566	938.299351083602	498.654571080837	324.340937801318	917.892774210892	425.090534415857	320.899136952934	833.308302489964	301.202465182557	285.826969058147	906.013719932019	198.993545136546	353.274403037442	869.886626648618	397.117283874437	553.039285248458	738.471558875035	369.376385571263	596.375697172599	719.744829872682	264.802436939797	541.500430398110	513.847272953955	212.423607233552	483.883642003563	677.772693550928	161.806187625705	554.273923123953	563.460512492823	166.700999916770	572.595651750786	736.497660026259	56.163193367654	605.837892695623	795.223385893777	37.762839392473	413.717372063177	865.481031878277	34.256262751549	328.974186229439	948.207543029788	99.192326152489	348.390676906753	1076.010558842770	51.044911152810	319.390257728773	804.665761984534	1062.436472352584	138.360418750273	890.261583311835	817.258498812064	132.773933823242	897.487617764368	1110.006135861346	699.777380821872	1126.670761662286	1018.389625037730	631.271506004603	
92	12.665000000000	659.325031879253	1004.348889014700	443.484312981891	811.631862236675	1423.379937973605	237.825985327478	919.028526356584	1368.585182305159	401.465126174458	836.387721845543	1450.802628617417	570.416297410981	795.642522692412	1493.713069227740	387.544939096176	885.496009640775	939.919470003441	558.455579814283	871.682832451470	964.569383417819	284.878473281766	944.473362186116	747.336842564919	541.951744411215	874.719092777248	631.957970398545	607.156254207212	968.215154981328	580.230092846521	540.928216178690	965.177575590693	465.514471021586	561.567703183188	925.063654510287	758.065267948635	308.380834405543	838.929377671198	638.664748711710	255.690001127697	930.075225041308	566.894889337559	314.584231186246	932.961907985051	498.115594477876	323.189883434281	912.313286901827	424.715680773278	319.927020426700	826.931491893967	301.230025473738	285.230443824964	899.217822754099	198.784446645375	352.812867958550	880.807041140146	400.728542533715	554.573546052277	748.687466837309	374.054369161846	596.677168930787	729.624205559358	269.559262821542	541.976670744866	524.014548416238	218.732624499696	482.406179453728	686.782172711153	166.915619894512	554.554955178885	572.294042285803	172.674376469299	571.723975449132	744.188282736578	60.562741560732	607.000571100216	787.870701759572	37.751638768224	413.639725223419	858.100449487287	34.178998384042	328.888146564895	940.848754621790	99.154432632162	348.214769538192	1068.647512892110	51.018079582283	319.256393497638	812.682768313758	1063.496512626913	135.197042766718	905.659812759801	820.940401946290	129.042217937380	885.274540913423	1109.198746261841	700.579705282980	1109.812073257733	1002.429658224618	637.426078991430	
